<?xml version="1.0" encoding="utf-8"?>
<!-- Generator: Adobe Illustrator 15.0.0, SVG Export Plug-In . SVG Version: 6.00 Build 0)  -->
<!DOCTYPE svg PUBLIC "-//W3C//DTD SVG 1.1//EN" "http://www.w3.org/Graphics/SVG/1.1/DTD/svg11.dtd">
<svg version="1.1" id="Layer_1" xmlns="http://www.w3.org/2000/svg" xmlns:xlink="http://www.w3.org/1999/xlink" x="0px" y="0px"
	 width="612px" height="792px" viewBox="0 0 612 792" enable-background="new 0 0 612 792" xml:space="preserve">
<g>
	<path d="M306,360.776c-19.882,0-36,16.117-36,36s16.118,36,36,36s36-16.117,36-36S325.882,360.776,306,360.776z M302.675,387.165
		c-4.65,0-6.407,3.205-6.407,10.024l-0.196,0.052h4.31c1.258,0,2.288,1.03,2.288,2.29v13.309c0,1.26-1.03,2.29-2.288,2.29h-11.567
		c-1.262,0-2.29-1.03-2.29-2.29v-13.309c0-0.118,0.018-0.231,0.036-0.344c0.078-10.103,2.328-19.271,16.115-20.081V387.165z
		 M325.372,387.165c-4.65,0-6.409,3.205-6.409,10.024l-0.194,0.052h4.308c1.259,0,2.289,1.03,2.289,2.29v13.309
		c0,1.26-1.03,2.29-2.289,2.29H311.51c-1.261,0-2.29-1.03-2.29-2.29v-13.309c0-0.118,0.019-0.231,0.036-0.344
		c0.078-10.103,2.328-19.271,16.116-20.081V387.165z"/>
</g>
</svg>
