<?xml version="1.0" encoding="utf-8"?>
<!-- Generator: Adobe Illustrator 15.0.0, SVG Export Plug-In . SVG Version: 6.00 Build 0)  -->
<!DOCTYPE svg PUBLIC "-//W3C//DTD SVG 1.1//EN" "http://www.w3.org/Graphics/SVG/1.1/DTD/svg11.dtd">
<svg version="1.1" id="Layer_1" xmlns="http://www.w3.org/2000/svg" xmlns:xlink="http://www.w3.org/1999/xlink" x="0px" y="0px"
	 width="73px" height="73px" viewBox="0 0 73 73" enable-background="new 0 0 73 73" xml:space="preserve">
<g id="XMLID_1_">
	<g>
		<path fill="#ADADAD" d="M71.892,27.636c0.45,0.53,0.76,1.37,0.75,2.11c-0.03,1.2-0.53,1.93-0.95,2.44
			c-0.43,0.51-0.89,0.87-1.41,1.22l-16.2,10.69c-0.27,0.109-0.729,0.92-0.689,1.479c0,0.16,0.02,0.28,0.05,0.37l7.12,20.88
			c0.21,0.65,0.359,1.261,0.37,2.021c-0.011,0.58-0.08,1.359-0.7,2.22c-0.57,0.85-1.74,1.36-2.58,1.36c-0.04,0-0.08,0-0.12-0.011
			c-1.63-0.079-2.31-0.71-3.14-1.31l-16.78-13.67c-0.13-0.11-0.45-0.24-0.81-0.24c-0.37,0-0.7,0.141-0.83,0.26l-15.93,13.561
			c-0.82,0.62-1.51,1.28-3.18,1.37c-0.88,0.05-2.16-0.5-2.74-1.4c-0.6-0.859-0.67-1.64-0.68-2.229c0-0.71,0.14-1.29,0.31-1.891
			l6.33-20.739c0.03-0.091,0.05-0.211,0.05-0.36c0.05-0.601-0.47-1.51-0.76-1.63l-16.28-10.74c-0.51-0.34-0.98-0.7-1.41-1.21
			c-0.42-0.51-0.92-1.24-0.95-2.44c-0.01-0.74,0.3-1.58,0.76-2.12c0.45-0.55,0.95-0.85,1.39-1.04c0.88-0.38,1.6-0.43,2.39-0.44
			l20.2-0.01c0.19,0.01,0.62-0.11,0.98-0.4c0.37-0.27,0.61-0.65,0.65-0.84l5.85-21.02c0.19-0.66,0.4-1.26,0.84-1.92
			c0.4-0.59,1.29-1.57,2.89-1.6c1.61,0.04,2.49,1.01,2.89,1.6c0.44,0.65,0.66,1.25,0.85,1.91l5.851,21.04
			c0.05,0.18,0.28,0.56,0.649,0.83c0.36,0.29,0.79,0.41,0.98,0.4l20.2,0.01c0.59,0,1.149,0.05,1.76,0.21
			C70.461,26.536,71.192,26.806,71.892,27.636z"/>
	</g>
	<g>
	</g>
</g>
</svg>
